# Blender v2.90.1 OBJ File: 'laundrybasket.blend'
# www.blender.org
mtllib laundrybasket.mtl
o laundry_basket
v -0.142258 0.250000 0.120000
v -0.170000 0.250000 0.092339
v -0.170000 0.250000 -0.092339
v -0.142258 0.250000 -0.120000
v 0.170000 0.250000 0.092339
v 0.142258 0.250000 0.120000
v 0.142258 0.250000 -0.120000
v 0.170000 0.250000 -0.092339
v -0.200000 0.230000 0.122251
v -0.172176 0.230000 0.150000
v -0.200000 0.230000 -0.122251
v -0.172176 0.230000 -0.150000
v 0.172176 0.230000 -0.150000
v 0.200000 0.230000 -0.122251
v 0.200000 0.230000 0.122251
v 0.172176 0.230000 0.150000
v -0.144000 0.000000 -0.076429
v -0.116342 0.000000 -0.104000
v -0.116342 0.000000 0.104000
v -0.144000 -0.000000 0.076429
v -0.152248 0.230000 -0.130000
v -0.180000 0.230000 -0.102332
v 0.116342 0.000000 -0.104000
v 0.144000 -0.000000 -0.076429
v 0.180000 0.230000 -0.102332
v 0.152248 0.230000 -0.130000
v 0.116342 0.000000 0.104000
v 0.152248 0.230000 0.130000
v 0.180000 0.230000 0.102332
v -0.180000 0.230000 0.102332
v -0.152248 0.230000 0.130000
v -0.172178 0.250000 0.150000
v -0.200000 0.250000 0.122252
v -0.200000 0.250000 -0.122252
v -0.172178 0.250000 -0.150000
v 0.172178 0.250000 -0.150000
v 0.200000 0.250000 -0.122252
v 0.200000 0.250000 0.122252
v 0.172178 0.250000 0.150000
v -0.136000 0.010000 0.068436
v -0.108354 0.010000 0.096000
v -0.108354 0.010000 -0.096000
v -0.136000 0.010000 -0.068436
v 0.136000 0.010000 -0.068436
v 0.108354 0.010000 -0.096000
v 0.108354 0.010000 0.096000
v 0.136000 0.010000 0.068436
v 0.144000 0.000000 0.076429
v -0.156923 0.212578 0.101116
v 0.154943 0.212578 0.101116
v -0.151686 0.212578 -0.106281
v 0.154943 0.212578 -0.108021
v -0.170000 0.223182 -0.080000
v -0.170000 0.235226 -0.040000
v -0.170000 0.245590 0.000000
v -0.170000 0.235226 0.040000
v -0.170000 0.224757 0.080000
v 0.170000 0.220178 0.080000
v 0.170000 0.235226 0.040000
v 0.170000 0.245590 -0.000000
v 0.170000 0.235226 -0.040000
v 0.170000 0.223292 -0.080000
v -0.127500 0.212578 0.120000
v -0.085000 0.233219 0.120000
v -0.042500 0.235226 0.120000
v 0.000000 0.245590 0.120000
v 0.042500 0.235226 0.120000
v 0.085000 0.233219 0.120000
v 0.127500 0.212578 0.120000
v 0.127500 0.212578 -0.120000
v 0.085000 0.233219 -0.120000
v 0.042500 0.235226 -0.120000
v 0.000000 0.245590 -0.120000
v -0.042500 0.235226 -0.120000
v -0.085000 0.233219 -0.120000
v -0.127500 0.212578 -0.120000
v 0.128123 0.251099 0.080723
v 0.086470 0.268923 0.084230
v 0.043083 0.267419 0.083471
v 0.000000 0.259803 0.076264
v -0.041883 0.255152 0.076327
v -0.086181 0.268148 0.083769
v -0.125026 0.247367 0.077027
v 0.127036 0.260486 0.039786
v 0.086398 0.283718 0.041466
v 0.042307 0.282671 0.039434
v 0.000000 0.297975 0.043442
v -0.042349 0.283002 0.039557
v -0.084939 0.278165 0.039936
v -0.126857 0.260075 0.039743
v 0.125640 0.257575 -0.000000
v 0.082658 0.276508 -0.000000
v 0.041409 0.287451 -0.000000
v 0.000000 0.303745 0.000000
v -0.043277 0.299382 0.000000
v -0.086850 0.289639 0.000000
v -0.125498 0.257279 0.000000
v 0.123484 0.252866 -0.038470
v 0.085758 0.281460 -0.040795
v 0.042079 0.280495 -0.038574
v 0.000000 0.280341 -0.036140
v -0.042658 0.285579 -0.040537
v -0.085155 0.279003 -0.040163
v -0.130784 0.268449 -0.041436
v 0.128488 0.257708 -0.081163
v 0.084376 0.257690 -0.077882
v 0.042517 0.261707 -0.080144
v 0.000000 0.256344 -0.077040
v -0.042052 0.255016 -0.076252
v -0.086267 0.268108 -0.083761
v -0.126429 0.248297 -0.078723
v 0.129718 0.261422 -0.007366
v 0.129718 0.271422 -0.007366
v 0.155385 0.248292 -0.067366
v 0.155385 0.258292 -0.067366
v 0.105570 0.240409 -0.110308
v 0.073098 0.271441 -0.055622
v 0.073098 0.280944 -0.058735
v 0.105570 0.249912 -0.113420
v 0.211220 0.211529 -0.027366
v 0.211312 0.231529 -0.007366
v 0.211251 0.218306 -0.014143
v 0.221312 0.231483 -0.007366
v 0.221220 0.211483 -0.027366
v 0.221251 0.218260 -0.014143
v 0.211312 0.231529 -0.067366
v 0.211220 0.211529 -0.047366
v 0.211251 0.218306 -0.060589
v 0.221220 0.211483 -0.047366
v 0.221312 0.231483 -0.067366
v 0.221251 0.218260 -0.060589
v 0.177321 0.250000 -0.067366
v 0.199258 0.250000 -0.067366
v 0.207904 0.243211 -0.067366
v 0.207904 0.243211 -0.007366
v 0.199258 0.250000 -0.007366
v 0.177321 0.250000 -0.007366
v 0.216602 0.248147 -0.007366
v 0.199258 0.260000 -0.007366
v 0.177321 0.260000 -0.007366
v 0.216602 0.248147 -0.067366
v 0.199258 0.260000 -0.067366
v 0.177321 0.260000 -0.067366
v 0.159635 0.258080 -0.007366
v 0.157685 0.267888 -0.007366
v 0.157685 0.257278 -0.067366
v 0.159635 0.247470 -0.067366
v 0.103843 0.278255 -0.024351
v 0.088625 0.284517 -0.043846
v 0.088625 0.275013 -0.040733
v 0.103843 0.268255 -0.024351
v 0.138109 0.274255 -0.082732
v 0.121096 0.263492 -0.098531
v 0.121096 0.253988 -0.095419
v 0.138109 0.264255 -0.082732
vt 0.416667 0.942857
vt 0.869048 0.942857
vt 0.845238 0.985714
vt 0.440476 0.985714
vt 0.047619 0.942857
vt 0.369048 0.942857
vt 0.345238 0.985714
vt 0.071429 0.985714
vt 0.333333 0.357143
vt 0.297619 0.000000
vt 0.571429 0.000000
vt 0.535714 0.357143
vt 0.047619 0.942857
vt 0.369048 0.942857
vt 0.345238 0.985714
vt 0.071429 0.985714
vt 0.452381 0.871429
vt 0.833333 0.871429
vt 0.869048 0.914286
vt 0.416667 0.914286
vt 0.047619 0.914286
vt 0.369048 0.914286
vt 0.047619 0.914286
vt 0.369048 0.914286
vt 0.416667 0.942857
vt 0.869048 0.942857
vt 0.845238 0.985714
vt 0.440476 0.985714
vt 0.416667 0.914286
vt 0.869048 0.914286
vt 0.297619 0.771429
vt 0.000000 0.828571
vt 0.000000 0.342857
vt 0.297619 0.400000
vt 0.535714 0.357143
vt 0.571429 0.000000
vt 0.297619 0.000000
vt 0.333333 0.357143
vt 0.345238 0.814286
vt 0.345238 0.357143
vt 0.523810 0.357143
vt 0.523810 0.814286
vt 0.535714 0.814286
vt 0.333333 0.814286
vt 0.297619 0.400000
vt 0.000000 0.342857
vt 0.000000 0.828571
vt 0.297619 0.771429
vt 0.000000 0.357143
vt 0.000000 0.814286
vt 0.309524 0.757143
vt 0.309524 0.414286
vt 0.559524 0.000000
vt 0.309524 0.000000
vt 0.345238 0.357143
vt 0.523810 0.357143
vt 0.000000 0.814286
vt 0.000000 0.357143
vt 0.309524 0.414286
vt 0.309524 0.757143
vt 0.452381 0.871429
vt 0.833333 0.871429
vt 0.083333 0.871429
vt 0.321429 0.871429
vt 0.083333 0.871429
vt 0.321429 0.871429
vt 0.000000 0.942857
vt 0.000000 0.914286
vt 0.369048 1.000000
vt 0.416667 1.000000
vt 0.047619 1.000000
vt 0.000000 1.000000
vt 0.369048 1.000000
vt 0.416667 1.000000
vt 0.047619 1.000000
vt 0.000000 1.000000
vt 0.000000 0.942857
vt 0.000000 0.914286
vt 0.619048 0.000000
vt 0.577381 0.357143
vt 0.523810 0.357143
vt 0.559524 0.000000
vt 0.559524 0.000000
vt 0.523810 0.357143
vt 0.577381 0.357143
vt 0.619048 0.000000
vt 0.250000 0.000000
vt 0.285714 0.357143
vt 0.285714 0.357143
vt 0.250000 0.000000
vt 0.000000 0.857143
vt 0.047619 0.857143
vt 0.416667 0.857143
vt 0.369048 0.857143
vt 0.047619 0.857143
vt 0.000000 0.857143
vt 0.416667 0.857143
vt 0.369048 0.857143
vt 0.577381 0.357143
vt 0.619048 0.000000
vt 0.559524 0.000000
vt 0.619048 0.000000
vt 0.577381 0.357143
vt 0.309524 0.000000
vt 0.297619 0.357143
vt 0.261905 0.000000
vt 0.261905 0.000000
vt 0.297619 0.357143
vt 0.571429 0.400000
vt 0.571429 0.771429
vt 0.559524 0.414286
vt 0.559524 0.757143
vt 0.928571 0.085714
vt 0.928571 0.000000
vt 0.976190 0.014286
vt 1.000000 0.057143
vt 0.630952 0.071429
vt 0.666667 0.028571
vt 0.702381 0.000000
vt 0.714286 0.085714
vt 0.761905 0.014286
vt 0.761905 0.085714
vt 0.809524 0.014286
vt 0.821429 0.085714
vt 0.869048 0.000000
vt 0.869048 0.085714
vt 0.880952 0.571429
vt 0.869048 0.485714
vt 0.928571 0.500000
vt 0.940476 0.571429
vt 0.869048 0.414286
vt 0.928571 0.428571
vt 0.869048 0.357143
vt 0.928571 0.357143
vt 0.869048 0.285714
vt 0.928571 0.285714
vt 0.869048 0.228571
vt 0.928571 0.214286
vt 0.869048 0.157143
vt 0.928571 0.142857
vt 0.821429 0.571429
vt 0.821429 0.485714
vt 0.821429 0.414286
vt 0.821429 0.357143
vt 0.821429 0.285714
vt 0.821429 0.228571
vt 0.821429 0.157143
vt 0.761905 0.571429
vt 0.761905 0.485714
vt 0.773810 0.414286
vt 0.761905 0.357143
vt 0.773810 0.285714
vt 0.773810 0.228571
vt 0.761905 0.157143
vt 0.702381 0.571429
vt 0.714286 0.485714
vt 0.714286 0.428571
vt 0.714286 0.357143
vt 0.714286 0.285714
vt 0.702381 0.228571
vt 0.714286 0.157143
vt 0.666667 0.557143
vt 0.642857 0.514286
vt 0.654762 0.428571
vt 0.642857 0.357143
vt 0.642857 0.285714
vt 0.642857 0.214286
vt 0.642857 0.142857
vt 1.000000 0.514286
vt 0.976190 0.557143
vt 0.988095 0.428571
vt 1.000000 0.357143
vt 0.988095 0.285714
vt 1.000000 0.214286
vt 0.988095 0.142857
vt 0.190476 0.114286
vt 0.202381 0.100000
vt 0.202381 0.071429
vt 0.190476 0.071429
vt 0.202381 0.214286
vt 0.214286 0.214286
vt 0.202381 0.185714
vt 0.190476 0.185714
vt 0.130952 0.014286
vt 0.142857 0.028571
vt 0.083333 0.000000
vt 0.107143 0.000000
vt 0.136905 0.314286
vt 0.136905 0.328571
vt 0.154762 0.328571
vt 0.154762 0.314286
vt 0.202381 0.300000
vt 0.214286 0.314286
vt 0.190476 0.328571
vt 0.190476 0.314286
vt 0.178571 0.000000
vt 0.166667 0.000000
vt 0.035714 0.257143
vt 0.119048 0.242857
vt 0.130952 0.271429
vt 0.047619 0.285714
vt 0.119048 0.242857
vt 0.035714 0.257143
vt 0.047619 0.285714
vt 0.130952 0.271429
vt 0.178571 0.142857
vt 0.166667 0.142857
vt 0.154762 0.114286
vt 0.166667 0.114286
vt 0.154762 0.328571
vt 0.154762 0.314286
vt 0.166667 0.314286
vt 0.178571 0.328571
vt 0.190476 0.328571
vt 0.190476 0.314286
vt 0.166667 0.314286
vt 0.178571 0.328571
vt 0.130952 0.085714
vt 0.142857 0.057143
vt 0.071429 0.014286
vt 0.059524 0.042857
vt 0.023810 0.128571
vt 0.095238 0.157143
vt 0.095238 0.171429
vt 0.011905 0.171429
vt 0.142857 0.028571
vt 0.083333 0.000000
vt 0.142857 0.057143
vt 0.071429 0.014286
vt 0.130952 0.014286
vt 0.107143 0.000000
vt 0.130952 0.085714
vt 0.059524 0.042857
vt 0.119048 0.114286
vt 0.047619 0.071429
vt 0.107143 0.142857
vt 0.035714 0.100000
vt 0.095238 0.157143
vt 0.107143 0.142857
vt 0.035714 0.100000
vt 0.023810 0.128571
vt 0.119048 0.114286
vt 0.047619 0.071429
vt 0.214286 0.242857
vt 0.214286 0.214286
vt 0.226190 0.242857
vt 0.214286 0.242857
vt 0.226190 0.285714
vt 0.214286 0.285714
vt 0.214286 0.314286
vt 0.202381 0.300000
vt 0.226190 0.285714
vt 0.214286 0.285714
vt 0.226190 0.242857
vt 0.214286 0.242857
vt 0.202381 0.214286
vt 0.214286 0.214286
vt 0.095238 0.171429
vt 0.011905 0.171429
vt 0.190476 0.185714
vt 0.202381 0.185714
vt 0.023810 0.228571
vt 0.107143 0.214286
vt 0.107143 0.214286
vt 0.023810 0.228571
vt 0.202381 0.142857
vt 0.190476 0.142857
vn 0.0000 -1.0000 0.0000
vn -0.9880 -0.1546 0.0000
vn 0.0000 1.0000 0.0000
vn 1.0000 -0.0000 0.0000
vn -1.0000 -0.0000 0.0000
vn 0.0000 0.0000 -1.0000
vn 0.0000 -0.1123 0.9937
vn 0.9880 -0.1546 0.0000
vn 0.0000 -0.1123 -0.9937
vn 0.0000 0.0995 -0.9950
vn -0.9901 0.1403 0.0000
vn 0.0000 0.0000 1.0000
vn 0.0000 0.0995 0.9950
vn -0.7062 -0.0001 0.7080
vn -0.7062 -0.0001 -0.7080
vn 0.7062 -0.0001 -0.7080
vn 0.7062 -0.0001 0.7080
vn -0.6936 -0.1869 -0.6957
vn 0.6936 -0.1869 -0.6957
vn 0.6936 -0.1869 0.6957
vn -0.6936 -0.1869 0.6957
vn -0.6960 0.1681 -0.6981
vn 0.6960 0.1681 -0.6981
vn 0.6960 0.1681 0.6981
vn -0.6960 0.1681 0.6981
vn 0.9901 0.1403 0.0000
vn 0.4383 0.6353 -0.6358
vn 0.4601 0.6439 0.6112
vn 0.5374 0.8093 0.2371
vn 0.3909 0.9170 0.0788
vn 0.3016 0.9348 -0.1878
vn 0.5084 0.8600 -0.0430
vn -0.5402 0.7656 -0.3494
vn -0.3262 0.8781 -0.3501
vn 0.1042 0.8811 -0.4613
vn 0.0622 0.8132 -0.5786
vn -0.0877 0.8840 -0.4591
vn 0.0316 0.8789 -0.4759
vn 0.3205 0.9248 -0.2049
vn -0.4719 0.8808 0.0393
vn -0.4539 0.8907 0.0258
vn -0.1795 0.9401 -0.2898
vn 0.0315 0.8993 -0.4361
vn 0.1659 0.9141 -0.3700
vn 0.1162 0.9930 -0.0196
vn 0.5072 0.8618 0.0087
vn -0.3833 0.9201 0.0808
vn -0.5285 0.8436 0.0955
vn -0.1560 0.9304 0.3316
vn -0.2240 0.9410 0.2536
vn 0.3556 0.9276 0.1142
vn 0.1160 0.9926 -0.0365
vn 0.4437 0.8854 -0.1383
vn -0.4495 0.8527 0.2664
vn -0.4374 0.8651 0.2455
vn 0.1224 0.8978 0.4230
vn -0.1962 0.7107 0.6756
vn 0.0525 0.8202 0.5696
vn -0.0380 0.9442 0.3272
vn 0.4453 0.8618 0.2428
vn -0.3476 0.7279 0.5910
vn -0.4016 0.6907 0.6014
vn 0.1512 0.8154 0.5587
vn -0.1633 0.9194 0.3579
vn -0.0143 0.8657 0.5004
vn -0.0018 0.7290 0.6845
vn 0.3322 0.6660 0.6679
vn -0.3739 0.7176 -0.5875
vn -0.3735 0.6853 -0.6252
vn 0.1526 0.8166 -0.5567
vn -0.1324 0.9351 -0.3287
vn 0.0387 0.9114 -0.4098
vn 0.0746 0.8472 -0.5260
vn 0.1539 0.7489 -0.6446
vn -0.7010 0.2220 0.6777
vn 1.0000 -0.0046 0.0000
vn -0.0046 -1.0000 0.0000
vn -0.8847 -0.1451 -0.4430
vn -0.0543 0.8887 -0.4552
vn 0.0543 -0.8887 0.4552
vn 0.7638 -0.2009 -0.6133
vn -0.0041 -0.8899 -0.4561
vn -0.0021 -0.4561 -0.8899
vn -0.0021 -0.4561 0.8899
vn -0.0041 -0.8899 0.4561
vn -0.9600 -0.2800 0.0000
vn 0.1466 0.9759 -0.1617
vn -1.0000 0.0046 0.0000
vn 0.9623 0.2720 0.0000
vn 0.5642 0.8256 0.0000
vn -0.1544 -0.9842 0.0870
vn -0.6175 -0.7865 0.0000
vn -0.1192 -0.9785 0.1681
vn 0.1299 0.9877 -0.0873
vn 0.6646 0.0000 -0.7472
vn 0.6787 -0.1157 -0.7252
vn -0.4177 -0.9050 -0.0805
vn -0.0582 -0.9814 0.1829
vn 0.4177 0.9050 0.0805
vn 0.0612 0.9816 -0.1811
vn -0.5487 0.0000 0.8360
vn -0.7389 0.1062 0.6654
usemtl 1
s off
f 16/1/1 10/2/1 31/3/1 28/4/1
f 14/5/1 15/6/1 29/7/1 25/8/1
f 20/9/2 30/10/2 22/11/2 17/12/2
f 9/13/1 11/14/1 22/15/1 30/16/1
f 6/17/3 1/18/3 32/19/3 39/20/3
f 14/5/4 37/21/4 38/22/4 15/6/4
f 9/13/5 33/23/5 34/24/5 11/14/5
f 12/25/1 13/26/1 26/27/1 21/28/1
f 12/25/6 35/29/6 36/30/6 13/26/6
f 27/31/7 28/32/7 31/33/7 19/34/7
f 24/35/8 25/36/8 29/37/8 48/38/8
f 44/39/3 43/40/3 40/41/3 47/42/3
f 17/12/1 24/43/1 48/44/1 20/9/1
f 18/45/9 21/46/9 26/47/9 23/48/9
f 1/49/10 6/50/10 46/51/10 41/52/10
f 5/53/11 8/54/11 44/55/11 47/56/11
f 16/1/12 39/20/12 32/19/12 10/2/12
f 7/57/13 4/58/13 42/59/13 45/60/13
f 4/61/3 7/62/3 36/30/3 35/29/3
f 8/63/3 5/64/3 38/22/3 37/21/3
f 2/65/3 3/66/3 34/24/3 33/23/3
f 10/67/14 32/68/14 33/23/14 9/13/14
f 29/69/1 15/6/1 16/1/1 28/70/1
f 9/13/1 30/71/1 31/72/1 10/67/1
f 22/73/1 11/14/1 12/25/1 21/74/1
f 14/5/1 25/75/1 26/76/1 13/77/1
f 35/29/15 12/25/15 11/14/15 34/24/15
f 37/21/16 14/5/16 13/77/16 36/78/16
f 39/20/17 16/1/17 15/6/17 38/22/17
f 21/79/18 18/80/18 17/81/18 22/82/18
f 25/83/19 24/84/19 23/85/19 26/86/19
f 28/87/20 27/88/20 48/38/20 29/37/20
f 19/89/21 31/90/21 30/10/21 20/9/21
f 32/68/3 1/91/3 2/92/3 33/23/3
f 4/93/3 35/29/3 34/24/3 3/94/3
f 8/95/3 37/21/3 36/78/3 7/96/3
f 6/97/3 39/20/3 38/22/3 5/98/3
f 5/53/22 47/56/22 46/99/22 6/100/22
f 40/41/23 2/101/23 1/102/23 41/103/23
f 3/104/24 43/40/24 42/105/24 4/106/24
f 44/55/25 8/54/25 7/107/25 45/108/25
f 3/104/26 2/101/26 40/41/26 43/40/26
f 24/43/1 17/12/1 18/109/1 23/110/1
f 20/9/1 48/44/1 27/31/1 19/34/1
f 47/42/3 40/41/3 41/111/3 46/112/3
f 43/40/3 44/39/3 45/60/3 42/59/3
f 105/113/27 62/114/27 52/115/27 70/116/27
f 69/117/28 50/118/28 58/119/28 77/120/28
f 77/120/29 58/119/29 59/121/29 84/122/29
f 84/122/30 59/121/30 60/123/30 91/124/30
f 91/124/31 60/123/31 61/125/31 98/126/31
f 98/126/32 61/125/32 62/114/32 105/113/32
f 54/127/33 104/128/33 111/129/33 53/130/33
f 104/128/34 103/131/34 110/132/34 111/129/34
f 103/131/35 102/133/35 109/134/35 110/132/35
f 102/133/36 101/135/36 108/136/36 109/134/36
f 101/135/37 100/137/37 107/138/37 108/136/37
f 100/137/38 99/139/38 106/140/38 107/138/38
f 99/139/39 98/126/39 105/113/39 106/140/39
f 55/141/40 97/142/40 104/128/40 54/127/40
f 97/142/41 96/143/41 103/131/41 104/128/41
f 96/143/42 95/144/42 102/133/42 103/131/42
f 95/144/43 94/145/43 101/135/43 102/133/43
f 94/145/44 93/146/44 100/137/44 101/135/44
f 93/146/45 92/147/45 99/139/45 100/137/45
f 92/147/46 91/124/46 98/126/46 99/139/46
f 56/148/47 90/149/47 97/142/47 55/141/47
f 90/149/48 89/150/48 96/143/48 97/142/48
f 89/150/49 88/151/49 95/144/49 96/143/49
f 88/151/50 87/152/50 94/145/50 95/144/50
f 87/152/51 86/153/51 93/146/51 94/145/51
f 86/153/52 85/154/52 92/147/52 93/146/52
f 85/154/53 84/122/53 91/124/53 92/147/53
f 57/155/54 83/156/54 90/149/54 56/148/54
f 83/156/55 82/157/55 89/150/55 90/149/55
f 82/157/56 81/158/56 88/151/56 89/150/56
f 81/158/57 80/159/57 87/152/57 88/151/57
f 80/159/58 79/160/58 86/153/58 87/152/58
f 79/160/59 78/161/59 85/154/59 86/153/59
f 78/161/60 77/120/60 84/122/60 85/154/60
f 49/162/61 63/163/61 83/156/61 57/155/61
f 63/163/62 64/164/62 82/157/62 83/156/62
f 64/164/63 65/165/63 81/158/63 82/157/63
f 65/165/64 66/166/64 80/159/64 81/158/64
f 66/166/65 67/167/65 79/160/65 80/159/65
f 67/167/66 68/168/66 78/161/66 79/160/66
f 68/168/67 69/117/67 77/120/67 78/161/67
f 53/130/68 111/129/68 76/169/68 51/170/68
f 111/129/69 110/132/69 75/171/69 76/169/69
f 110/132/70 109/134/70 74/172/70 75/171/70
f 109/134/71 108/136/71 73/173/71 74/172/71
f 108/136/72 107/138/72 72/174/72 73/173/72
f 107/138/73 106/140/73 71/175/73 72/174/73
f 106/140/74 105/113/74 70/116/74 71/175/74
f 150/176/75 149/177/75 118/178/75 117/179/75
f 144/180/12 145/181/12 113/182/12 112/183/12
f 129/184/76 131/185/76 125/186/76 124/187/76
f 127/188/77 129/189/77 124/190/77 120/191/77
f 134/192/6 141/193/6 130/194/6 126/195/6
f 117/179/78 118/178/78 119/196/78 116/197/78
f 149/198/79 153/199/79 119/200/79 118/201/79
f 154/202/80 150/203/80 117/204/80 116/205/80
f 153/206/81 154/207/81 116/208/81 119/209/81
f 129/210/82 127/211/82 128/212/82 131/213/82
f 131/213/83 128/212/83 126/195/83 130/194/83
f 123/214/84 121/215/84 122/216/84 125/217/84
f 125/217/85 122/216/85 120/191/85 124/190/85
f 134/218/86 126/219/86 121/220/86 135/221/86
f 145/222/87 146/223/87 115/224/87 113/225/87
f 121/220/88 126/219/88 128/226/88 122/227/88
f 125/186/76 131/185/76 130/228/76 123/229/76
f 122/227/88 128/226/88 127/230/88 120/231/88
f 123/229/89 130/228/89 141/232/89 138/233/89
f 138/233/90 141/232/90 142/234/90 139/235/90
f 139/235/3 142/234/3 143/236/3 140/237/3
f 147/238/91 132/239/91 137/240/91 144/241/91
f 132/239/1 133/242/1 136/243/1 137/240/1
f 133/242/92 134/218/92 135/221/92 136/243/92
f 147/244/6 146/245/6 143/246/6 132/247/6
f 132/247/6 143/246/6 142/248/6 133/249/6
f 133/249/6 142/248/6 141/193/6 134/192/6
f 121/215/12 123/214/12 138/250/12 135/251/12
f 135/251/12 138/250/12 139/252/12 136/253/12
f 136/253/12 139/252/12 140/254/12 137/255/12
f 114/256/6 115/257/6 146/245/6 147/244/6
f 114/258/93 147/238/93 144/241/93 112/259/93
f 140/237/94 143/236/94 146/223/94 145/222/94
f 137/255/12 140/254/12 145/181/12 144/180/12
f 115/257/95 114/256/95 155/260/95 152/261/95
f 152/261/96 155/260/96 154/207/96 153/206/96
f 114/258/97 112/259/97 151/262/97 155/263/97
f 155/263/98 151/262/98 150/203/98 154/202/98
f 113/225/99 115/224/99 152/264/99 148/265/99
f 148/265/100 152/264/100 153/199/100 149/198/100
f 112/183/101 113/182/101 148/266/101 151/267/101
f 151/267/102 148/266/102 149/177/102 150/176/102
